<svg id="visual" viewBox="0 0 960 540" preserveAspectRatio="none" xmlns="http://www.w3.org/2000/svg" xmlns:xlink="http://www.w3.org/1999/xlink" version="1.1"><rect x="0" y="0" width="960" height="540" fill="#ffffff"></rect><defs><linearGradient id="grad1_0" x1="43.8%" y1="0%" x2="100%" y2="100%"><stop offset="14.444444444444446%" stop-color="#0b7ad5" stop-opacity="1"></stop><stop offset="85.55555555555554%" stop-color="#0b7ad5" stop-opacity="1"></stop></linearGradient></defs><defs><linearGradient id="grad1_1" x1="43.8%" y1="0%" x2="100%" y2="100%"><stop offset="14.444444444444446%" stop-color="#0b7ad5" stop-opacity="1"></stop><stop offset="85.55555555555554%" stop-color="#6d99e0" stop-opacity="1"></stop></linearGradient></defs><defs><linearGradient id="grad1_2" x1="43.8%" y1="0%" x2="100%" y2="100%"><stop offset="14.444444444444446%" stop-color="#a2baeb" stop-opacity="1"></stop><stop offset="85.55555555555554%" stop-color="#6d99e0" stop-opacity="1"></stop></linearGradient></defs><defs><linearGradient id="grad1_3" x1="43.8%" y1="0%" x2="100%" y2="100%"><stop offset="14.444444444444446%" stop-color="#a2baeb" stop-opacity="1"></stop><stop offset="85.55555555555554%" stop-color="#d2dcf5" stop-opacity="1"></stop></linearGradient></defs><defs><linearGradient id="grad1_4" x1="43.8%" y1="0%" x2="100%" y2="100%"><stop offset="14.444444444444446%" stop-color="#ffffff" stop-opacity="1"></stop><stop offset="85.55555555555554%" stop-color="#d2dcf5" stop-opacity="1"></stop></linearGradient></defs><defs><linearGradient id="grad2_0" x1="0%" y1="0%" x2="56.3%" y2="100%"><stop offset="14.444444444444446%" stop-color="#0b7ad5" stop-opacity="1"></stop><stop offset="85.55555555555554%" stop-color="#0b7ad5" stop-opacity="1"></stop></linearGradient></defs><defs><linearGradient id="grad2_1" x1="0%" y1="0%" x2="56.3%" y2="100%"><stop offset="14.444444444444446%" stop-color="#6d99e0" stop-opacity="1"></stop><stop offset="85.55555555555554%" stop-color="#0b7ad5" stop-opacity="1"></stop></linearGradient></defs><defs><linearGradient id="grad2_2" x1="0%" y1="0%" x2="56.3%" y2="100%"><stop offset="14.444444444444446%" stop-color="#6d99e0" stop-opacity="1"></stop><stop offset="85.55555555555554%" stop-color="#a2baeb" stop-opacity="1"></stop></linearGradient></defs><defs><linearGradient id="grad2_3" x1="0%" y1="0%" x2="56.3%" y2="100%"><stop offset="14.444444444444446%" stop-color="#d2dcf5" stop-opacity="1"></stop><stop offset="85.55555555555554%" stop-color="#a2baeb" stop-opacity="1"></stop></linearGradient></defs><defs><linearGradient id="grad2_4" x1="0%" y1="0%" x2="56.3%" y2="100%"><stop offset="14.444444444444446%" stop-color="#d2dcf5" stop-opacity="1"></stop><stop offset="85.55555555555554%" stop-color="#ffffff" stop-opacity="1"></stop></linearGradient></defs><g transform="translate(960, 0)"><path d="M0 540C-32 521.6 -63.9 503.1 -99.3 499.2C-134.7 495.3 -173.5 505.9 -205.5 496.1C-237.5 486.3 -262.6 456.1 -288.3 431.5C-314.1 407 -340.4 388.2 -366.3 366.3C-392.2 344.4 -417.8 319.3 -434 290C-450.3 260.7 -457.3 227.1 -474 196.3C-490.6 165.5 -517 137.6 -529.6 105.3C-542.2 73.1 -541.1 36.6 -540 0L0 0Z" fill="#e8edfa"></path><path d="M0 432C-25.6 417.3 -51.1 402.5 -79.4 399.4C-107.8 396.3 -138.8 404.7 -164.4 396.9C-190 389 -210.1 364.8 -230.7 345.2C-251.2 325.6 -272.3 310.6 -293 293C-313.8 275.5 -334.2 255.5 -347.2 232C-360.2 208.6 -365.8 181.7 -379.2 157.1C-392.5 132.4 -413.6 110.1 -423.7 84.3C-433.8 58.5 -432.9 29.2 -432 0L0 0Z" fill="#bacaf0"></path><path d="M0 324C-19.2 312.9 -38.3 301.9 -59.6 299.5C-80.8 297.2 -104.1 303.6 -123.3 297.7C-142.5 291.8 -157.6 273.6 -173 258.9C-188.4 244.2 -204.2 232.9 -219.8 219.8C-235.3 206.6 -250.7 191.6 -260.4 174C-270.2 156.4 -274.4 136.3 -284.4 117.8C-294.4 99.3 -310.2 82.6 -317.8 63.2C-325.3 43.9 -324.7 21.9 -324 0L0 0Z" fill="#89a9e6"></path><path d="M0 216C-12.8 208.6 -25.6 201.3 -39.7 199.7C-53.9 198.1 -69.4 202.4 -82.2 198.4C-95 194.5 -105 182.4 -115.3 172.6C-125.6 162.8 -136.1 155.3 -146.5 146.5C-156.9 137.7 -167.1 127.7 -173.6 116C-180.1 104.3 -182.9 90.8 -189.6 78.5C-196.3 66.2 -206.8 55 -211.8 42.1C-216.9 29.2 -216.4 14.6 -216 0L0 0Z" fill="#4b89db"></path><path d="M0 108C-6.4 104.3 -12.8 100.6 -19.9 99.8C-26.9 99.1 -34.7 101.2 -41.1 99.2C-47.5 97.3 -52.5 91.2 -57.7 86.3C-62.8 81.4 -68.1 77.6 -73.3 73.3C-78.4 68.9 -83.6 63.9 -86.8 58C-90.1 52.1 -91.5 45.4 -94.8 39.3C-98.1 33.1 -103.4 27.5 -105.9 21.1C-108.4 14.6 -108.2 7.3 -108 0L0 0Z" fill="#0b7ad5"></path></g><g transform="translate(0, 540)"><path d="M0 -540C33.1 -519.8 66.3 -499.5 95.4 -479.6C124.5 -459.7 149.6 -440 176.4 -425.9C203.2 -411.8 231.6 -403.1 264.5 -395.8C297.3 -388.4 334.6 -382.3 367.7 -367.7C400.8 -353.1 429.7 -330 449 -300C468.2 -270.1 477.8 -233.3 476.7 -197.5C475.7 -161.6 464 -126.8 472.7 -94C481.5 -61.3 510.8 -30.6 540 0L0 0Z" fill="#e8edfa"></path><path d="M0 -432C26.5 -415.8 53 -399.6 76.3 -383.7C99.6 -367.7 119.7 -352 141.1 -340.7C162.5 -329.4 185.3 -322.5 211.6 -316.6C237.8 -310.7 267.7 -305.8 294.2 -294.2C320.6 -282.5 343.8 -264 359.2 -240C374.6 -216 382.2 -186.6 381.4 -158C380.5 -129.3 371.2 -101.4 378.2 -75.2C385.2 -49 408.6 -24.5 432 0L0 0Z" fill="#bacaf0"></path><path d="M0 -324C19.9 -311.9 39.8 -299.7 57.2 -287.8C74.7 -275.8 89.8 -264 105.9 -255.5C121.9 -247.1 139 -241.9 158.7 -237.5C178.4 -233 200.8 -229.4 220.6 -220.6C240.5 -211.8 257.8 -198 269.4 -180C280.9 -162 286.7 -140 286 -118.5C285.4 -97 278.4 -76.1 283.6 -56.4C288.9 -36.8 306.5 -18.4 324 0L0 0Z" fill="#89a9e6"></path><path d="M0 -216C13.3 -207.9 26.5 -199.8 38.2 -191.8C49.8 -183.9 59.9 -176 70.6 -170.4C81.3 -164.7 92.6 -161.3 105.8 -158.3C118.9 -155.4 133.8 -152.9 147.1 -147.1C160.3 -141.2 171.9 -132 179.6 -120C187.3 -108 191.1 -93.3 190.7 -79C190.3 -64.7 185.6 -50.7 189.1 -37.6C192.6 -24.5 204.3 -12.3 216 0L0 0Z" fill="#4b89db"></path><path d="M0 -108C6.6 -104 13.3 -99.9 19.1 -95.9C24.9 -91.9 29.9 -88 35.3 -85.2C40.6 -82.4 46.3 -80.6 52.9 -79.2C59.5 -77.7 66.9 -76.5 73.5 -73.5C80.2 -70.6 85.9 -66 89.8 -60C93.6 -54 95.6 -46.7 95.3 -39.5C95.1 -32.3 92.8 -25.4 94.5 -18.8C96.3 -12.3 102.2 -6.1 108 0L0 0Z" fill="#0b7ad5"></path></g></svg>